<svg width="100" height="100" viewBox="0 0 608 608" fill="none" xmlns="http://www.w3.org/2000/svg">
  <g filter="url(#filter0_d_439_1014)">
    <circle cx="304" cy="300" r="300" fill="white" />
    <g filter="url(#filter1_d_439_1014)">
      <path
        d="M129.091 123.92C148.507 104.623 171.607 92.7555 199.653 87.6687C204.403 86.8063 213.935 86.0575 220.834 86.004C258.932 85.706 294.056 102.046 316.9 130.694C335.273 153.735 343.934 179.147 343.982 210.142C343.994 218.135 343.742 224.938 343.423 225.262C343.423 225.262 309.12 221.735 304.821 221.263V209.612C305.51 177.969 286.025 147.026 256.935 133.559C230.326 121.243 195.899 124.234 171.124 141.014C150.368 155.072 137.421 172.916 130.494 197.009C128.265 204.76 127.758 208.856 127.766 219.08C127.78 238.611 132.212 253.226 142.57 267.903C160.496 293.303 187.238 307.082 214.356 304.891C232.811 303.399 249.761 295.53 263.558 283.29L288.277 313.961C279.242 321.614 269.523 328.18 258.901 333.429C247.678 338.975 233.627 343.876 221.038 344.425C206.491 345.065 192.385 345.351 178.062 341.147C139.876 329.937 106.641 297.823 94.1002 260.014C85.8867 235.253 85.9731 204.289 94.3248 179.521C102.51 155.246 110.616 142.282 129.091 123.92Z"
        fill="url(#paint0_linear_439_1014)" />
    </g>
    <g filter="url(#filter2_d_439_1014)">
      <path
        d="M367.344 302.66C359.512 306.245 352.392 310.733 345.779 316.255L318.763 283.374C318.763 283.374 337.656 270.275 348.452 265.363C392.646 242.126 450.098 256.848 484.006 290.987C499.551 306.638 508.881 321.754 515.014 341.228C532.405 396.45 511.077 456.59 461.729 491.485C454.588 496.534 439.755 503.909 430.5 507.011C413.573 512.686 405.169 514.013 386.237 514C370.474 513.989 367.857 513.696 356.304 510.651C310.381 498.544 276.69 463.775 267.062 418.553C264.055 404.429 263.266 394.747 264.2 383.414L264.977 373.981L304.086 379.434C304.086 379.434 303.367 384.991 303.4 391.784C303.431 398.577 305.095 406.313 305.776 408.977C313.463 439.035 333.781 460.91 362.486 470.038C377.374 474.771 400.524 474.209 416.37 468.729C440.89 460.251 461.279 441.833 472.15 418.34C482.726 395.49 483.411 369.98 474.062 347.077C470.06 337.273 465.642 330.977 455.229 320.246C430.224 294.473 398.918 288.21 367.344 302.66Z"
        fill="url(#paint1_linear_439_1014)" />
    </g>
    <g filter="url(#filter3_d_439_1014)">
      <path
        d="M389.792 391.65C365.456 391.619 350.182 382.09 323.845 350.507C304.499 327.308 284.807 304.519 265.849 280.998C256.091 269.77 247.408 256.684 234.332 249.303C224.929 243.992 212.563 246.895 203.564 251.387C191.946 257.188 189.495 257.755 183.446 256.043C173.66 253.272 167.988 244.045 169.449 233.271C170.645 224.444 177.999 217.874 193.855 211.468C215.567 202.696 236.202 204.686 256.164 217.476C266.386 224.026 275.603 234.395 283.113 243.662C311.366 275.477 367.503 358.086 389.792 352.144C404.159 348.314 410.983 339.045 423.968 339.045C434.615 339.045 443.248 348.448 443.214 359.222C443.214 369.251 432.623 375.888 428.214 378.339C414.222 385.208 404.923 390.568 389.792 391.65Z"
        fill="url(#paint2_linear_439_1014)" />
    </g>
  </g>
  <defs>
    <filter id="filter0_d_439_1014" x="0" y="0" width="608" height="608" filterUnits="userSpaceOnUse"
      color-interpolation-filters="sRGB">
      <feFlood flood-opacity="0" result="BackgroundImageFix" />
      <feColorMatrix in="SourceAlpha" type="matrix" values="0 0 0 0 0 0 0 0 0 0 0 0 0 0 0 0 0 0 127 0"
        result="hardAlpha" />
      <feOffset dy="4" />
      <feGaussianBlur stdDeviation="2" />
      <feComposite in2="hardAlpha" operator="out" />
      <feColorMatrix type="matrix" values="0 0 0 0 0 0 0 0 0 0 0 0 0 0 0 0 0 0 0.25 0" />
      <feBlend mode="normal" in2="BackgroundImageFix" result="effect1_dropShadow_439_1014" />
      <feBlend mode="normal" in="SourceGraphic" in2="effect1_dropShadow_439_1014" result="shape" />
    </filter>
    <filter id="filter1_d_439_1014" x="84" y="86" width="263.982" height="266.795" filterUnits="userSpaceOnUse"
      color-interpolation-filters="sRGB">
      <feFlood flood-opacity="0" result="BackgroundImageFix" />
      <feColorMatrix in="SourceAlpha" type="matrix" values="0 0 0 0 0 0 0 0 0 0 0 0 0 0 0 0 0 0 127 0"
        result="hardAlpha" />
      <feOffset dy="4" />
      <feGaussianBlur stdDeviation="2" />
      <feComposite in2="hardAlpha" operator="out" />
      <feColorMatrix type="matrix" values="0 0 0 0 0 0 0 0 0 0 0 0 0 0 0 0 0 0 0.25 0" />
      <feBlend mode="normal" in2="BackgroundImageFix" result="effect1_dropShadow_439_1014" />
      <feBlend mode="normal" in="SourceGraphic" in2="effect1_dropShadow_439_1014" result="shape" />
    </filter>
    <filter id="filter2_d_439_1014" x="259.83" y="254.092" width="265.17" height="267.908" filterUnits="userSpaceOnUse"
      color-interpolation-filters="sRGB">
      <feFlood flood-opacity="0" result="BackgroundImageFix" />
      <feColorMatrix in="SourceAlpha" type="matrix" values="0 0 0 0 0 0 0 0 0 0 0 0 0 0 0 0 0 0 127 0"
        result="hardAlpha" />
      <feOffset dy="4" />
      <feGaussianBlur stdDeviation="2" />
      <feComposite in2="hardAlpha" operator="out" />
      <feColorMatrix type="matrix" values="0 0 0 0 0 0 0 0 0 0 0 0 0 0 0 0 0 0 0.25 0" />
      <feBlend mode="normal" in2="BackgroundImageFix" result="effect1_dropShadow_439_1014" />
      <feBlend mode="normal" in="SourceGraphic" in2="effect1_dropShadow_439_1014" result="shape" />
    </filter>
    <filter id="filter3_d_439_1014" x="165.221" y="206.108" width="281.993" height="193.542"
      filterUnits="userSpaceOnUse" color-interpolation-filters="sRGB">
      <feFlood flood-opacity="0" result="BackgroundImageFix" />
      <feColorMatrix in="SourceAlpha" type="matrix" values="0 0 0 0 0 0 0 0 0 0 0 0 0 0 0 0 0 0 127 0"
        result="hardAlpha" />
      <feOffset dy="4" />
      <feGaussianBlur stdDeviation="2" />
      <feComposite in2="hardAlpha" operator="out" />
      <feColorMatrix type="matrix" values="0 0 0 0 0 0 0 0 0 0 0 0 0 0 0 0 0 0 0.25 0" />
      <feBlend mode="normal" in2="BackgroundImageFix" result="effect1_dropShadow_439_1014" />
      <feBlend mode="normal" in="SourceGraphic" in2="effect1_dropShadow_439_1014" result="shape" />
    </filter>
    <linearGradient id="paint0_linear_439_1014" x1="130.56" y1="126.84" x2="483.037" y2="467.885"
      gradientUnits="userSpaceOnUse">
      <stop stop-color="#01C006" />
      <stop offset="1" stop-color="#084FA7" />
    </linearGradient>
    <linearGradient id="paint1_linear_439_1014" x1="133.615" y1="124.547" x2="486.091" y2="465.592"
      gradientUnits="userSpaceOnUse">
      <stop stop-color="#00C400" />
      <stop offset="1" stop-color="#084FA7" />
    </linearGradient>
    <linearGradient id="paint2_linear_439_1014" x1="136.493" y1="120.011" x2="473.559" y2="476.66"
      gradientUnits="userSpaceOnUse">
      <stop stop-color="#01BD0B" />
      <stop offset="1" stop-color="#0853A2" />
    </linearGradient>
  </defs>
</svg>